<svg xmlns="http://www.w3.org/2000/svg" xmlns:xlink="http://www.w3.org/1999/xlink" width="285" height="128" viewBox="0 0 285 128">
  <defs>
    <clipPath id="clip-path">
      <rect id="Rectangle_35" data-name="Rectangle 35" width="285" height="128" transform="translate(1579 57)" fill="#fff" stroke="#707070" stroke-width="1"/>
    </clipPath>
    <clipPath id="clip-path-2">
      <rect id="Rectangle_13" data-name="Rectangle 13" width="247.136" height="190.48" transform="translate(0 0.16)"/>
    </clipPath>
    <clipPath id="clip-path-3">
      <path id="Path_45" data-name="Path 45" d="M-.475,200.68H245.247V63.672H-.475Z" transform="translate(0.475 -63.672)" fill="#fff"/>
    </clipPath>
    <clipPath id="clip-path-4">
      <path id="Path_37" data-name="Path 37" d="M8.6,171.334h77V63.672H8.6Z" transform="translate(-8.599 -63.672)" fill="#fff"/>
    </clipPath>
    <clipPath id="clip-path-5">
      <path id="Path_39" data-name="Path 39" d="M279.348,176.427H365.42V73.781H279.348Z" transform="translate(-279.348 -73.781)" fill="#fff"/>
    </clipPath>
  </defs>
  <g id="sea_force_logo" data-name="sea force logo" transform="translate(-1579 -57)" clip-path="url(#clip-path)">
    <g id="seaforce_logo" data-name="seaforce logo" transform="translate(1597.464 35.84)" clip-path="url(#clip-path-2)">
      <g id="Group_48" data-name="Group 48" transform="translate(-0.225 29.958)" clip-path="url(#clip-path-3)">
        <path id="Path_34" data-name="Path 34" d="M427.556,68.859l10.137,103.1a1.252,1.252,0,0,0,1.284,1.13l25.567-.744a1.251,1.251,0,0,0,1.216-1.262l-.886-105.307a1.254,1.254,0,0,0-1.36-1.238L428.7,67.489a1.252,1.252,0,0,0-1.14,1.37Z" transform="translate(-225.426 -64.127)" fill="#b67cb4"/>
        <path id="Path_35" data-name="Path 35" d="M150.377,164.7l13.946-99.129a1.27,1.27,0,0,1,1.436-1.082L224.885,72.8a1.27,1.27,0,0,1,1.081,1.437L223,95.355a1.27,1.27,0,0,1-1.436,1.081L190.052,92a1.27,1.27,0,0,0-1.436,1.082l-1.749,12.43a1.27,1.27,0,0,0,1.082,1.436l29.372,4.132a1.27,1.27,0,0,1,1.081,1.437l-2.97,21.113A1.27,1.27,0,0,1,214,134.716l-29.371-4.132a1.27,1.27,0,0,0-1.436,1.081l-1.869,13.285a1.27,1.27,0,0,0,1.081,1.436l38.563,5.551a1.27,1.27,0,0,1,1.061,1.549l-4.879,20.846a1.27,1.27,0,0,1-1.414.969l-64.275-9.168a1.27,1.27,0,0,1-1.08-1.436Z" transform="translate(-79.135 -64.095)" fill="#8ec74c"/>
        <g id="Group_45" data-name="Group 45" transform="translate(4.285 0.002)">
          <g id="Group_44" data-name="Group 44" transform="translate(0 0)" clip-path="url(#clip-path-4)">
            <path id="Path_36" data-name="Path 36" d="M37.954,128.489q-13.811-2.2-20.8-9.072T8.818,99.392Q7.327,84.8,16.03,75.242T41.322,63.98q15.727-1.61,24.953,5.177,8.834,6.5,12.417,21.309a1.3,1.3,0,0,1-1.01,1.568L53.555,96.861a1.3,1.3,0,0,1-1.5-.92q-1.55-5.523-3.4-7.567-2.04-2.247-6.042-1.837a7.059,7.059,0,0,0-5.286,2.708,8.7,8.7,0,0,0-1.317,6.2,8.828,8.828,0,0,0,2.317,5.689,10.864,10.864,0,0,0,6.028,2.418s5.152.74,11.814,1.972a36.3,36.3,0,0,1,20.821,12.048,33.574,33.574,0,0,1,8.349,19.449q1.624,15.875-6.986,25.644c-5.742,6.512-14.095,7.939-25.916,8.561-23.188,1.218-36.6-7.886-40.5-30.749a1.294,1.294,0,0,1,1.151-1.494l24.92-2.549a1.291,1.291,0,0,1,1.4,1.013q1.305,6.2,3.835,8.856a8.526,8.526,0,0,0,7.473,2.415,8.171,8.171,0,0,0,5.98-3,9.391,9.391,0,0,0,1.536-6.877,9,9,0,0,0-2.466-5.745,11.672,11.672,0,0,0-6.208-2.761Z" transform="translate(-8.6 -63.673)" fill="#f69442"/>
          </g>
        </g>
        <g id="Group_47" data-name="Group 47" transform="translate(132.139 4.775)">
          <g id="Group_46" data-name="Group 46" transform="translate(0 0)" clip-path="url(#clip-path-5)">
            <path id="Path_38" data-name="Path 38" d="M321.081,101.6l-6.426,32.844a1.094,1.094,0,0,0,1.074,1.3h12.73a1.094,1.094,0,0,0,1.075-1.3l-6.305-32.84a1.094,1.094,0,0,0-2.147-.007Zm16.3,73.945-3.254-16.917a1.092,1.092,0,0,0-1.075-.887H310.982a1.092,1.092,0,0,0-1.074.879l-3.388,16.93a1.094,1.094,0,0,1-1.075.879H280.438a1.094,1.094,0,0,1-1.059-1.368L305.265,74.6a1.092,1.092,0,0,1,1.058-.821h33.231a1.093,1.093,0,0,1,1.061.832l24.763,100.46a1.093,1.093,0,0,1-1.061,1.356H338.45a1.093,1.093,0,0,1-1.074-.888Z" transform="translate(-279.351 -73.78)" fill="#3abebf"/>
          </g>
        </g>
        <path id="Path_40" data-name="Path 40" d="M465.555,95.8l-2.312.128a.348.348,0,0,1-.367-.327l-.514-9.249a.349.349,0,0,0-.366-.329l-5.147.286a.35.35,0,0,0-.328.368l.48,8.656a.347.347,0,0,1-.327.366l-2.344.131a.348.348,0,0,1-.365-.329l-.48-8.66a.348.348,0,0,0-.368-.327l-8.068.448a.349.349,0,0,1-.366-.329l-.161-2.9a.349.349,0,0,1,.33-.366l19.956-1.107a.347.347,0,0,1,.366.328l.712,12.842a.349.349,0,0,1-.329.368Z" transform="translate(-234.382 -73.481)" fill="#fefefe"/>
        <path id="Path_41" data-name="Path 41" d="M449.415,127.7a5.437,5.437,0,0,0,2.353,4.516,9.389,9.389,0,0,0,5.83,1.255,12.266,12.266,0,0,0,3.245-.586,7.194,7.194,0,0,0,2.394-1.308,5.21,5.21,0,0,0,1.454-2.018,6.926,6.926,0,0,0-.3-5.4,5.333,5.333,0,0,0-1.67-1.856,6.829,6.829,0,0,0-2.523-1.035,12.716,12.716,0,0,0-3.29-.2,9.449,9.449,0,0,0-5.656,1.877,5.423,5.423,0,0,0-1.838,4.761Zm-3.007.2a10.876,10.876,0,0,1,.51-4.152,8.762,8.762,0,0,1,1.954-3.25,9.385,9.385,0,0,1,3.287-2.192,15.141,15.141,0,0,1,9.127-.488,9.66,9.66,0,0,1,3.539,1.829,8.624,8.624,0,0,1,2.316,3.028,11.688,11.688,0,0,1,.452,8.164,8.427,8.427,0,0,1-1.954,3.236,9.641,9.641,0,0,1-3.289,2.162,13.921,13.921,0,0,1-4.518.95,14.272,14.272,0,0,1-4.621-.428,9.6,9.6,0,0,1-3.521-1.77A8.387,8.387,0,0,1,447.379,132a11,11,0,0,1-.97-4.1Z" transform="translate(-235.37 -91.986)" fill="#fff"/>
        <path id="Path_42" data-name="Path 42" d="M460.687,174.266a7.046,7.046,0,0,0,.358,2.005,3.057,3.057,0,0,0,.764,1.223,2.5,2.5,0,0,0,1.121.593,4.841,4.841,0,0,0,1.427.113,3.73,3.73,0,0,0,1.3-.293,2.344,2.344,0,0,0,.972-.8,3.71,3.71,0,0,0,.575-1.414,8.433,8.433,0,0,0,.111-2.149l-.182-3.274a.349.349,0,0,0-.367-.329l-5.959.332a.348.348,0,0,0-.328.366Zm9.529-.8a12.121,12.121,0,0,1-.328,3.993,6.642,6.642,0,0,1-1.3,2.54,4.874,4.874,0,0,1-1.881,1.368,6.7,6.7,0,0,1-2.092.473,6.476,6.476,0,0,1-3.43-.63,5.576,5.576,0,0,1-2.174-2.2.346.346,0,0,0-.468-.136l-7.994,4.455a.349.349,0,0,1-.518-.285l-.175-3.14a.35.35,0,0,1,.185-.327l7.807-4.151c-.03-.177-.056-.365-.074-.561s-.038-.406-.05-.624l-.2-3.452a.347.347,0,0,0-.366-.328l-7.462.415a.349.349,0,0,1-.367-.328l-.157-2.833a.348.348,0,0,1,.328-.368l19.956-1.107a.346.346,0,0,1,.366.328Z" transform="translate(-236.845 -117.808)" fill="#fefefe"/>
        <path id="Path_43" data-name="Path 43" d="M459.232,223.926a.354.354,0,0,1-.379.371,9.517,9.517,0,0,1-2.622-.608,7.4,7.4,0,0,1-2.468-1.59,7.749,7.749,0,0,1-1.724-2.584,10.81,10.81,0,0,1-.767-3.62,10.484,10.484,0,0,1,.527-4.124,8.168,8.168,0,0,1,1.986-3.148,9.432,9.432,0,0,1,3.31-2.059,14.879,14.879,0,0,1,4.462-.888,14.01,14.01,0,0,1,4.61.444A9.725,9.725,0,0,1,469.7,207.9a8.445,8.445,0,0,1,2.308,2.931,10.147,10.147,0,0,1,.955,3.878,10.779,10.779,0,0,1-.3,3.471,7.108,7.108,0,0,1-1.265,2.556,6.872,6.872,0,0,1-2.093,1.758,11.406,11.406,0,0,1-2.417.967.358.358,0,0,1-.441-.275l-.556-2.833a.348.348,0,0,1,.243-.391,9.983,9.983,0,0,0,1.516-.606,4.361,4.361,0,0,0,1.322-1.011,3.945,3.945,0,0,0,.789-1.458,5.807,5.807,0,0,0,.2-2.006,5.556,5.556,0,0,0-.691-2.493,5.136,5.136,0,0,0-1.679-1.768,7.325,7.325,0,0,0-2.54-1.005,12.587,12.587,0,0,0-3.262-.206,12.251,12.251,0,0,0-3.246.586,7.3,7.3,0,0,0-2.407,1.311,5.148,5.148,0,0,0-1.458,1.942,5.519,5.519,0,0,0-.4,2.508,6.258,6.258,0,0,0,.436,2.1,4.069,4.069,0,0,0,.977,1.419,4.16,4.16,0,0,0,1.456.858,7.522,7.522,0,0,0,1.6.356.349.349,0,0,1,.312.323Z" transform="translate(-237.937 -138.604)" fill="#fefefe"/>
        <path id="Path_44" data-name="Path 44" d="M474.524,251.124l.743,13.406a.348.348,0,0,1-.328.366l-2.312.128a.347.347,0,0,1-.366-.327l-.545-9.813a.35.35,0,0,0-.366-.329l-4.8.267a.35.35,0,0,0-.329.368l.511,9.218a.349.349,0,0,1-.327.368l-2.344.129a.347.347,0,0,1-.366-.328l-.512-9.22a.349.349,0,0,0-.367-.328l-5.407.3a.348.348,0,0,0-.329.366l.573,10.327a.348.348,0,0,1-.377.366l-2.331-.2a.346.346,0,0,1-.318-.328l-.755-13.6a.349.349,0,0,1,.329-.366l19.956-1.108a.349.349,0,0,1,.368.332Z" transform="translate(-239.318 -162.432)" fill="#fefefe"/>
      </g>
    </g>
  </g>
</svg>
