<svg xmlns="http://www.w3.org/2000/svg" xmlns:xlink="http://www.w3.org/1999/xlink" width="253" height="195" viewBox="0 0 253 195">
  <defs>
    <clipPath id="clip-path">
      <rect id="Rectangle_13" data-name="Rectangle 13" width="253" height="195" transform="translate(0 0.243)"/>
    </clipPath>
    <clipPath id="clip-path-2">
      <path id="Path_45" data-name="Path 45" d="M-.724,237.259H250.829V97H-.724Z" transform="translate(0.724 -97)" fill="#fff"/>
    </clipPath>
    <clipPath id="clip-path-3">
      <path id="Path_37" data-name="Path 37" d="M13.1,207.217H91.93V97H13.1Z" transform="translate(-13.1 -96.997)" fill="#fff"/>
    </clipPath>
    <clipPath id="clip-path-4">
      <path id="Path_39" data-name="Path 39" d="M425.569,217.482h88.115V112.4H425.569Z" transform="translate(-425.569 -112.399)" fill="#fff"/>
    </clipPath>
  </defs>
  <g id="seaforce_logo" data-name="seaforce logo" transform="translate(0 -0.243)" clip-path="url(#clip-path)">
    <g id="Group_48" data-name="Group 48" transform="translate(-0.23 30.749)" clip-path="url(#clip-path-2)">
      <path id="Path_34" data-name="Path 34" d="M651.352,102.741,661.73,208.287a1.282,1.282,0,0,0,1.314,1.157l26.174-.762a1.281,1.281,0,0,0,1.245-1.292l-.907-107.806a1.284,1.284,0,0,0-1.392-1.267l-35.645,3.021A1.282,1.282,0,0,0,651.352,102.741Z" transform="translate(-444.426 -97.896)" fill="#b67cb4"/>
      <path id="Path_35" data-name="Path 35" d="M229.084,200.824,243.361,99.343a1.3,1.3,0,0,1,1.47-1.108l60.529,8.514a1.3,1.3,0,0,1,1.107,1.471l-3.04,21.616a1.3,1.3,0,0,1-1.47,1.107L269.7,126.405a1.3,1.3,0,0,0-1.47,1.108l-1.791,12.725a1.3,1.3,0,0,0,1.108,1.47l30.069,4.23a1.3,1.3,0,0,1,1.107,1.471l-3.04,21.614a1.3,1.3,0,0,1-1.47,1.108l-30.068-4.23a1.3,1.3,0,0,0-1.47,1.107l-1.913,13.6a1.3,1.3,0,0,0,1.107,1.47l39.478,5.683a1.3,1.3,0,0,1,1.086,1.586l-4.995,21.341a1.3,1.3,0,0,1-1.448.992l-65.8-9.386A1.3,1.3,0,0,1,229.084,200.824Z" transform="translate(-156.151 -97.834)" fill="#8ec74c"/>
      <g id="Group_45" data-name="Group 45" transform="translate(4.387 -0.001)">
        <g id="Group_44" data-name="Group 44" clip-path="url(#clip-path-3)">
          <path id="Path_36" data-name="Path 36" d="M43.152,163.355q-14.139-2.25-21.293-9.287t-8.534-20.5q-1.527-14.935,7.383-24.724T46.6,97.315q16.1-1.648,25.545,5.3,9.044,6.659,12.712,21.815a1.326,1.326,0,0,1-1.034,1.605l-24.7,4.941a1.327,1.327,0,0,1-1.536-.942q-1.587-5.654-3.479-7.747-2.088-2.3-6.185-1.881a7.226,7.226,0,0,0-5.411,2.772,8.906,8.906,0,0,0-1.348,6.351q.405,3.955,2.372,5.824t6.171,2.475s5.274.758,12.094,2.019a37.16,37.16,0,0,1,21.315,12.334,34.371,34.371,0,0,1,8.547,19.91q1.663,16.252-7.152,26.253c-5.878,6.667-14.429,8.127-26.531,8.764-23.738,1.247-37.465-8.073-41.458-31.479A1.325,1.325,0,0,1,17.7,174.1l25.511-2.61a1.322,1.322,0,0,1,1.429,1.037q1.336,6.346,3.926,9.066,2.817,2.966,7.65,2.472a8.365,8.365,0,0,0,6.122-3.068,9.614,9.614,0,0,0,1.572-7.04,9.217,9.217,0,0,0-2.525-5.881,11.949,11.949,0,0,0-6.355-2.827Z" transform="translate(-13.102 -96.998)" fill="#f69442"/>
        </g>
      </g>
      <g id="Group_47" data-name="Group 47" transform="translate(135.274 4.887)">
        <g id="Group_46" data-name="Group 46" clip-path="url(#clip-path-4)">
          <path id="Path_38" data-name="Path 38" d="M468.291,140.877,461.712,174.5a1.12,1.12,0,0,0,1.1,1.334h13.032a1.12,1.12,0,0,0,1.1-1.331l-6.455-33.619A1.12,1.12,0,0,0,468.291,140.877Zm16.682,75.7-3.331-17.318a1.118,1.118,0,0,0-1.1-.908h-22.59a1.118,1.118,0,0,0-1.1.9l-3.468,17.332a1.12,1.12,0,0,1-1.1.9h-25.6a1.12,1.12,0,0,1-1.084-1.4l26.5-102.845a1.118,1.118,0,0,1,1.083-.84h34.02a1.119,1.119,0,0,1,1.086.852l25.351,102.844a1.119,1.119,0,0,1-1.086,1.388H486.072A1.119,1.119,0,0,1,484.973,216.573Z" transform="translate(-425.571 -112.398)" fill="#3abebf"/>
        </g>
      </g>
      <path id="Path_40" data-name="Path 40" d="M698.732,139.173l-2.367.131a.356.356,0,0,1-.376-.335l-.526-9.469a.357.357,0,0,0-.375-.337l-5.269.293a.358.358,0,0,0-.336.377l.491,8.861a.355.355,0,0,1-.335.375l-2.4.134a.356.356,0,0,1-.374-.337L686.374,130a.356.356,0,0,0-.377-.335l-8.259.459a.357.357,0,0,1-.375-.337l-.165-2.966a.357.357,0,0,1,.338-.375l20.429-1.133a.355.355,0,0,1,.375.336l.729,13.147A.357.357,0,0,1,698.732,139.173Z" transform="translate(-462.074 -116.329)" fill="#fefefe"/>
      <path id="Path_41" data-name="Path 41" d="M683.14,189.356a5.566,5.566,0,0,0,2.409,4.623,9.611,9.611,0,0,0,5.968,1.285,12.556,12.556,0,0,0,3.322-.6,7.364,7.364,0,0,0,2.451-1.339,5.333,5.333,0,0,0,1.489-2.066,7.09,7.09,0,0,0-.306-5.53,5.459,5.459,0,0,0-1.71-1.9,6.991,6.991,0,0,0-2.583-1.06,13.018,13.018,0,0,0-3.368-.209,9.673,9.673,0,0,0-5.79,1.922A5.551,5.551,0,0,0,683.14,189.356Zm-3.078.2a11.134,11.134,0,0,1,.522-4.251,8.97,8.97,0,0,1,2-3.327,9.608,9.608,0,0,1,3.365-2.244,15.5,15.5,0,0,1,9.344-.5,9.89,9.89,0,0,1,3.623,1.872,8.828,8.828,0,0,1,2.371,3.1,11.965,11.965,0,0,1,.463,8.358,8.627,8.627,0,0,1-2,3.313,9.867,9.867,0,0,1-3.367,2.213,14.251,14.251,0,0,1-4.625.973,14.612,14.612,0,0,1-4.731-.438,9.829,9.829,0,0,1-3.605-1.812,8.586,8.586,0,0,1-2.367-3.055A11.261,11.261,0,0,1,680.062,189.557Z" transform="translate(-464.015 -152.798)" fill="#fff"/>
      <path id="Path_42" data-name="Path 42" d="M696.077,261.473a7.21,7.21,0,0,0,.366,2.053,3.129,3.129,0,0,0,.782,1.252,2.558,2.558,0,0,0,1.148.607,4.957,4.957,0,0,0,1.461.116,3.819,3.819,0,0,0,1.334-.3,2.4,2.4,0,0,0,.995-.819,3.8,3.8,0,0,0,.589-1.448,8.636,8.636,0,0,0,.114-2.2l-.186-3.352a.357.357,0,0,0-.376-.337l-6.1.34a.356.356,0,0,0-.336.375Zm9.755-.815a12.407,12.407,0,0,1-.336,4.088,6.8,6.8,0,0,1-1.326,2.6,4.989,4.989,0,0,1-1.926,1.4,6.858,6.858,0,0,1-2.142.484,6.63,6.63,0,0,1-3.511-.645,5.708,5.708,0,0,1-2.226-2.253.354.354,0,0,0-.479-.139l-8.184,4.561a.357.357,0,0,1-.53-.292l-.179-3.215a.358.358,0,0,1,.189-.335l7.992-4.249c-.031-.181-.057-.374-.076-.574s-.039-.416-.051-.639l-.2-3.534a.355.355,0,0,0-.375-.336l-7.639.425a.357.357,0,0,1-.376-.336l-.161-2.9a.356.356,0,0,1,.336-.377l20.429-1.133a.354.354,0,0,1,.375.336Z" transform="translate(-466.923 -203.676)" fill="#fefefe"/>
      <path id="Path_43" data-name="Path 43" d="M695.619,332a.362.362,0,0,1-.388.38,9.741,9.741,0,0,1-2.684-.622,7.57,7.57,0,0,1-2.527-1.628,7.934,7.934,0,0,1-1.765-2.645,11.068,11.068,0,0,1-.785-3.706,10.732,10.732,0,0,1,.539-4.222,8.363,8.363,0,0,1,2.033-3.223,9.658,9.658,0,0,1,3.388-2.108,15.231,15.231,0,0,1,4.568-.909,14.341,14.341,0,0,1,4.719.455,9.955,9.955,0,0,1,3.62,1.827A8.646,8.646,0,0,1,708.7,318.6a10.387,10.387,0,0,1,.978,3.97,11.034,11.034,0,0,1-.308,3.553,7.276,7.276,0,0,1-1.295,2.617,7.035,7.035,0,0,1-2.143,1.8,11.676,11.676,0,0,1-2.474.99.366.366,0,0,1-.451-.281l-.569-2.9a.356.356,0,0,1,.249-.4,10.215,10.215,0,0,0,1.552-.62,4.463,4.463,0,0,0,1.353-1.035,4.04,4.04,0,0,0,.808-1.493,5.946,5.946,0,0,0,.2-2.054,5.688,5.688,0,0,0-.707-2.552,5.258,5.258,0,0,0-1.719-1.81,7.5,7.5,0,0,0-2.6-1.029,12.886,12.886,0,0,0-3.339-.211,12.544,12.544,0,0,0-3.323.6,7.477,7.477,0,0,0-2.464,1.342,5.27,5.27,0,0,0-1.493,1.988,5.65,5.65,0,0,0-.408,2.568,6.407,6.407,0,0,0,.446,2.154,4.166,4.166,0,0,0,1,1.453,4.258,4.258,0,0,0,1.49.878,7.7,7.7,0,0,0,1.636.364.357.357,0,0,1,.319.331Z" transform="translate(-469.073 -244.654)" fill="#fefefe"/>
      <path id="Path_44" data-name="Path 44" d="M712.587,382.406l.761,13.724a.356.356,0,0,1-.336.375l-2.367.131a.355.355,0,0,1-.375-.335l-.558-10.046a.358.358,0,0,0-.375-.337l-4.914.273a.358.358,0,0,0-.337.377l.523,9.437a.357.357,0,0,1-.335.377l-2.4.132a.355.355,0,0,1-.375-.336l-.524-9.439a.357.357,0,0,0-.376-.336l-5.535.307a.356.356,0,0,0-.337.375l.587,10.572a.356.356,0,0,1-.386.375l-2.386-.2a.354.354,0,0,1-.326-.336l-.773-13.921a.357.357,0,0,1,.337-.375l20.43-1.134A.357.357,0,0,1,712.587,382.406Z" transform="translate(-471.8 -291.609)" fill="#fefefe"/>
    </g>
  </g>
</svg>
