<svg xmlns="http://www.w3.org/2000/svg" xmlns:xlink="http://www.w3.org/1999/xlink" width="142" height="143" viewBox="0 0 142 143">
  <defs>
    <clipPath id="clip-adventure_icon_1">
      <rect width="142" height="143"/>
    </clipPath>
  </defs>
  <g id="adventure_icon_1" data-name="adventure icon – 1" clip-path="url(#clip-adventure_icon_1)">
    <circle id="Ellipse_1" data-name="Ellipse 1" cx="71" cy="71" r="71" fill="#3abebf"/>
    <g id="leadership" transform="translate(23.808 24.707)">
      <g id="Group_34" data-name="Group 34" transform="translate(0 17.455)">
        <g id="Group_33" data-name="Group 33">
          <path id="Path_30" data-name="Path 30" d="M67.995,146.7H53.7V133.99a7.944,7.944,0,0,0-7.944-7.944H36.219v-8.722l21.575-15.411a1.574,1.574,0,0,0,.35-2.24l-4.766-6.355a1.589,1.589,0,0,0-2.177-.35L34.917,104.232a11.121,11.121,0,1,0-17.588,2.749H15.566a1.588,1.588,0,0,0-1.176.524L4.127,118.913a7.944,7.944,0,0,0,.318,10.931l8.4,8.452a1.6,1.6,0,0,0,2.431-.207l1.875-2.653v28.741a1.589,1.589,0,0,0,1.589,1.589h9.533a1.589,1.589,0,0,0,1.589-1.589v-25.42H40.986V146.7H36.219a1.589,1.589,0,0,0-1.589,1.589v15.888a1.589,1.589,0,0,0,1.589,1.589H67.995a1.589,1.589,0,0,0,1.589-1.589V148.289A1.589,1.589,0,0,0,67.995,146.7ZM17.154,99.037a7.944,7.944,0,1,1,7.944,7.944A7.944,7.944,0,0,1,17.154,99.037Zm11.725,11.121-2.192,4.385-2.192-4.385ZM17.154,127.174l-2.542-2.717,2.542-2.542Zm11.121,8.4a1.589,1.589,0,0,0-1.589,1.589v25.42H20.332V118.1a1.6,1.6,0,0,0-2.717-1.128l-6.355,6.355a1.589,1.589,0,0,0,0,2.224l5.2,5.418-2.685,3.749-7.118-7.086a4.766,4.766,0,0,1-.175-6.593l9.8-10.883h4.655l4.337,8.659a1.589,1.589,0,0,0,2.828,0l4.592-9.167,19.065-13.2,2.876,3.829-20.924,14.95a1.588,1.588,0,0,0-.667,1.287v11.121a1.589,1.589,0,0,0,1.589,1.589H45.752a4.766,4.766,0,0,1,4.766,4.766V146.7H44.163v-9.533a1.589,1.589,0,0,0-1.589-1.589Zm38.13,27.009h-28.6v-12.71h28.6Z" transform="translate(-2.102 -87.895)" fill="#fff"/>
        </g>
      </g>
    </g>
  </g>
</svg>
