<svg xmlns="http://www.w3.org/2000/svg" xmlns:xlink="http://www.w3.org/1999/xlink" width="142" height="143" viewBox="0 0 142 143">
  <defs>
    <clipPath id="clip-adventure_icon">
      <rect width="142" height="143"/>
    </clipPath>
  </defs>
  <g id="adventure_icon" data-name="adventure icon" clip-path="url(#clip-adventure_icon)">
    <circle id="Ellipse_1" data-name="Ellipse 1" cx="71" cy="71" r="71" fill="#3abebf"/>
    <g id="leadership" transform="translate(23.808 24.707)">
      <g id="Group_34" data-name="Group 34" transform="translate(0 17.455)">
        <g id="Group_33" data-name="Group 33">
          <path id="Path_30" data-name="Path 30" d="M67.995,146.7H53.7V133.99a7.944,7.944,0,0,0-7.944-7.944H36.219v-8.722l21.575-15.411a1.574,1.574,0,0,0,.35-2.24l-4.766-6.355a1.589,1.589,0,0,0-2.177-.35L34.917,104.232a11.121,11.121,0,1,0-17.588,2.749H15.566a1.588,1.588,0,0,0-1.176.524L4.127,118.913a7.944,7.944,0,0,0,.318,10.931l8.4,8.452a1.6,1.6,0,0,0,2.431-.207l1.875-2.653v28.741a1.589,1.589,0,0,0,1.589,1.589h9.533a1.589,1.589,0,0,0,1.589-1.589v-25.42H40.986V146.7H36.219a1.589,1.589,0,0,0-1.589,1.589v15.888a1.589,1.589,0,0,0,1.589,1.589H67.995a1.589,1.589,0,0,0,1.589-1.589V148.289A1.589,1.589,0,0,0,67.995,146.7ZM17.154,99.037a7.944,7.944,0,1,1,7.944,7.944A7.944,7.944,0,0,1,17.154,99.037Zm11.725,11.121-2.192,4.385-2.192-4.385ZM17.154,127.174l-2.542-2.717,2.542-2.542Zm11.121,8.4a1.589,1.589,0,0,0-1.589,1.589v25.42H20.332V118.1a1.6,1.6,0,0,0-2.717-1.128l-6.355,6.355a1.589,1.589,0,0,0,0,2.224l5.2,5.418-2.685,3.749-7.118-7.086a4.766,4.766,0,0,1-.175-6.593l9.8-10.883h4.655l4.337,8.659a1.589,1.589,0,0,0,2.828,0l4.592-9.167,19.065-13.2,2.876,3.829-20.924,14.95a1.588,1.588,0,0,0-.667,1.287v11.121a1.589,1.589,0,0,0,1.589,1.589H45.752a4.766,4.766,0,0,1,4.766,4.766V146.7H44.163v-9.533a1.589,1.589,0,0,0-1.589-1.589Zm38.13,27.009h-28.6v-12.71h28.6Z" transform="translate(-2.102 -87.895)" fill="#fff"/>
        </g>
      </g>
      <g id="Group_36" data-name="Group 36" transform="translate(65.893)">
        <g id="Group_35" data-name="Group 35">
          <path id="Path_31" data-name="Path 31" d="M360.906,12.71A11.121,11.121,0,0,1,349.785,1.589a1.589,1.589,0,0,0-3.178,0A11.121,11.121,0,0,1,335.486,12.71a1.589,1.589,0,1,0,0,3.178,11.121,11.121,0,0,1,11.121,11.121,1.589,1.589,0,0,0,3.178,0,11.121,11.121,0,0,1,11.121-11.121,1.589,1.589,0,0,0,0-3.178ZM348.2,20.463a14.424,14.424,0,0,0-6.164-6.164A14.426,14.426,0,0,0,348.2,8.134,14.426,14.426,0,0,0,354.36,14.3,14.426,14.426,0,0,0,348.2,20.463Z" transform="translate(-333.897)" fill="#fff"/>
        </g>
      </g>
      <g id="Group_38" data-name="Group 38" transform="translate(49.064 40.023)">
        <g id="Group_37" data-name="Group 37" transform="translate(0)">
          <rect id="Rectangle_9" data-name="Rectangle 9" width="5.37" height="3.178" transform="translate(0 3.175) rotate(-36.251)" fill="#fff"/>
        </g>
      </g>
      <g id="Group_40" data-name="Group 40" transform="translate(57.019 25.725)">
        <g id="Group_39" data-name="Group 39" transform="translate(0 0)">
          <rect id="Rectangle_10" data-name="Rectangle 10" width="19.701" height="3.178" transform="translate(0 11.655) rotate(-36.272)" fill="#fff"/>
        </g>
      </g>
      <g id="Group_42" data-name="Group 42" transform="translate(57.061 17.74)">
        <g id="Group_41" data-name="Group 41" transform="translate(0 0)">
          <rect id="Rectangle_11" data-name="Rectangle 11" width="11.455" height="3.178" transform="translate(0 6.354) rotate(-33.692)" fill="#fff"/>
        </g>
      </g>
    </g>
  </g>
</svg>
