<svg xmlns="http://www.w3.org/2000/svg" xmlns:xlink="http://www.w3.org/1999/xlink" width="309" height="68" viewBox="0 0 309 68">
  <defs>
    <clipPath id="clip-hcdc_logo">
      <rect width="309" height="68"/>
    </clipPath>
  </defs>
  <g id="hcdc_logo" data-name="hcdc logo" clip-path="url(#clip-hcdc_logo)">
    <rect width="309" height="68" fill="#fff"/>
    <g id="harrison-county-type-01" transform="translate(81.597 18.802)">
      <path id="Path_46" data-name="Path 46" d="M47.734,19.916a1.851,1.851,0,0,0-.329.082q-.247.062-.617.123V31.395q.37.062.617.123a1.851,1.851,0,0,0,.329.082.18.18,0,0,1,.123.041.6.6,0,0,1,.535.658v1.275h-6.13V32.3a.6.6,0,0,1,.535-.658.151.151,0,0,0,.123-.041,1.867,1.867,0,0,1,.329-.082q.247-.062.617-.123V26.7H36.626v4.649c.247.041.494.082.658.123a1.851,1.851,0,0,0,.329.082.318.318,0,0,0,.123.041.6.6,0,0,1,.535.658v1.275H32.1V32.259a.6.6,0,0,1,.535-.658c.041,0,.082-.041.123-.041a1.851,1.851,0,0,0,.329-.082,6.455,6.455,0,0,1,.658-.123V20.081c-.247-.041-.494-.082-.658-.123a1.851,1.851,0,0,0-.329-.082.318.318,0,0,0-.123-.041.6.6,0,0,1-.535-.658V17.9h6.171v1.275a.6.6,0,0,1-.535.658.151.151,0,0,0-.123.041,1.851,1.851,0,0,0-.329.082,6.456,6.456,0,0,1-.658.123v4.526h7.282V20.081q-.37-.062-.617-.123a1.867,1.867,0,0,1-.329-.082.18.18,0,0,1-.123-.041.6.6,0,0,1-.535-.658V17.9h6.13v1.275a.6.6,0,0,1-.535.658C47.858,19.916,47.816,19.916,47.734,19.916Z" transform="translate(-32.1 -17.735)" fill="#022158"/>
      <path id="Path_47" data-name="Path 47" d="M89.922,32.441v1.111H84.7V32.441c0-.247.165-.411.411-.576a2.629,2.629,0,0,1,.411-.165l-.082-.247-.782-2.1h-6.13L77.7,31.577l-.082.123a1.448,1.448,0,0,0,.411.165.567.567,0,0,1,.411.576v1.111H73.3V32.441c0-.247.165-.411.411-.576.123-.041.535-.206,1.193-.494L80.13,18h2.962l5.266,13.371c.658.288,1.07.453,1.193.494A.621.621,0,0,1,89.922,32.441Zm-10.656-5.1h4.69l-1.769-4.814c-.082-.247-.165-.494-.288-.782a6.15,6.15,0,0,1-.288-1.029c-.123.37-.206.7-.288,1.029s-.206.576-.288.823Z" transform="translate(-56.349 -17.794)" fill="#022158"/>
      <path id="Path_48" data-name="Path 48" d="M129.006,32.218v1.275h-2.88a1.207,1.207,0,0,1-.658-.165,1.951,1.951,0,0,1-.411-.411l-3.25-4.978a.875.875,0,0,0-.411-.37,1.443,1.443,0,0,0-.658-.123h-1.111v3.95c.247.041.494.082.658.123a1.851,1.851,0,0,0,.329.082.18.18,0,0,1,.123.041.6.6,0,0,1,.535.658v1.275H115.1V32.3a.6.6,0,0,1,.535-.658c.041,0,.082-.041.123-.041a1.867,1.867,0,0,1,.329-.082,6.458,6.458,0,0,1,.658-.123V20.081c-.247-.041-.494-.082-.658-.123a1.851,1.851,0,0,0-.329-.082.18.18,0,0,1-.123-.041.6.6,0,0,1-.535-.658V17.9h6.213a10.2,10.2,0,0,1,2.715.329,5.556,5.556,0,0,1,1.851.905,3.547,3.547,0,0,1,1.07,1.4,4.428,4.428,0,0,1,.329,1.81,4.476,4.476,0,0,1-.247,1.481,5.365,5.365,0,0,1-.658,1.275,4.925,4.925,0,0,1-1.07.987,5.206,5.206,0,0,1-1.44.7,2.836,2.836,0,0,1,.946.905l2.427,3.621c.247.041.494.082.658.123a2.087,2.087,0,0,0,.37.082.426.426,0,0,1,.165.041A.6.6,0,0,1,129.006,32.218ZM123.7,24.565a2.451,2.451,0,0,0,.576-.864,3.09,3.09,0,0,0,.206-1.07,2.147,2.147,0,0,0-.782-1.81,3.847,3.847,0,0,0-2.386-.617h-1.687v5.143h1.646a4.769,4.769,0,0,0,1.4-.206A2.252,2.252,0,0,0,123.7,24.565Z" transform="translate(-80.952 -17.735)" fill="#022158"/>
      <path id="Path_49" data-name="Path 49" d="M164.206,32.218v1.275h-2.88a1.207,1.207,0,0,1-.658-.165,1.951,1.951,0,0,1-.411-.411l-3.25-4.978a.875.875,0,0,0-.411-.37,1.442,1.442,0,0,0-.658-.123h-1.111v3.95c.247.041.494.082.658.123a1.851,1.851,0,0,0,.329.082.18.18,0,0,1,.123.041.6.6,0,0,1,.535.658v1.275H150.3V32.3a.6.6,0,0,1,.535-.658c.041,0,.082-.041.123-.041a1.868,1.868,0,0,1,.329-.082,6.458,6.458,0,0,1,.658-.123V20.081c-.247-.041-.494-.082-.658-.123a1.85,1.85,0,0,0-.329-.082.18.18,0,0,1-.123-.041.6.6,0,0,1-.535-.658V17.9h6.213a10.2,10.2,0,0,1,2.715.329,5.556,5.556,0,0,1,1.851.905,3.547,3.547,0,0,1,1.07,1.4,4.428,4.428,0,0,1,.329,1.81,4.476,4.476,0,0,1-.247,1.481,5.365,5.365,0,0,1-.658,1.275,4.925,4.925,0,0,1-1.07.987,5.206,5.206,0,0,1-1.44.7,2.836,2.836,0,0,1,.946.905l2.427,3.621c.247.041.494.082.658.123a2.087,2.087,0,0,0,.37.082.425.425,0,0,1,.165.041A.6.6,0,0,1,164.206,32.218Zm-5.266-7.653a2.45,2.45,0,0,0,.576-.864,3.09,3.09,0,0,0,.206-1.07,2.147,2.147,0,0,0-.782-1.81,3.847,3.847,0,0,0-2.386-.617h-1.687v5.143h1.646a4.769,4.769,0,0,0,1.4-.206A2.786,2.786,0,0,0,158.94,24.565Z" transform="translate(-101.669 -17.735)" fill="#022158"/>
      <path id="Path_50" data-name="Path 50" d="M191.572,19.916a1.851,1.851,0,0,0-.329.082q-.247.062-.617.123V31.395q.37.062.617.123a1.851,1.851,0,0,0,.329.082.18.18,0,0,1,.123.041.6.6,0,0,1,.535.658v1.275H186.1V32.3a.6.6,0,0,1,.535-.658c.041,0,.082-.041.123-.041a1.868,1.868,0,0,1,.329-.082,6.458,6.458,0,0,1,.658-.123V20.081c-.247-.041-.494-.082-.658-.123a1.85,1.85,0,0,0-.329-.082.318.318,0,0,0-.123-.041.6.6,0,0,1-.535-.658V17.9h6.13v1.275a.6.6,0,0,1-.535.658C191.654,19.916,191.613,19.916,191.572,19.916Z" transform="translate(-122.74 -17.735)" fill="#022158"/>
      <path id="Path_51" data-name="Path 51" d="M213.062,28.462a5.057,5.057,0,0,1-.37,1.934,4.234,4.234,0,0,1-1.07,1.6,4.735,4.735,0,0,1-1.687,1.07,6.365,6.365,0,0,1-2.263.37h-.329a14.2,14.2,0,0,1-4.443-.823V28.626h1.193a.456.456,0,0,1,.494.37c.041.206.123.782.206,1.769a10.248,10.248,0,0,0,2.921.288,2.887,2.887,0,0,0,1.893-.576,2.059,2.059,0,0,0,.658-1.687,1.755,1.755,0,0,0-.288-.987,2.754,2.754,0,0,0-.823-.658A6.114,6.114,0,0,0,208,26.693c-.411-.123-.864-.247-1.317-.37-.453-.165-.864-.329-1.317-.535a4.383,4.383,0,0,1-1.152-.782,3.017,3.017,0,0,1-.782-1.193,4.378,4.378,0,0,1-.329-1.769,4.515,4.515,0,0,1,.329-1.646,4.288,4.288,0,0,1,.987-1.44,4.43,4.43,0,0,1,1.6-.987,5.9,5.9,0,0,1,2.181-.37,11.862,11.862,0,0,1,4.443.864v3.95H211.54c-.288,0-.411-.165-.494-.411-.041-.206-.123-.782-.206-1.728a6.574,6.574,0,0,0-2.51-.329,3.7,3.7,0,0,0-1.029.123,2.5,2.5,0,0,0-.741.411,1.345,1.345,0,0,0-.453.617,1.783,1.783,0,0,0-.165.782,1.356,1.356,0,0,0,.329.905,2.368,2.368,0,0,0,.782.617,7.471,7.471,0,0,0,1.152.453c.411.123.864.288,1.317.411.453.165.864.329,1.317.535a4.383,4.383,0,0,1,1.152.782,3.911,3.911,0,0,1,.823,1.152A5.655,5.655,0,0,1,213.062,28.462Z" transform="translate(-132.628 -17.559)" fill="#022158"/>
      <path id="Path_52" data-name="Path 52" d="M244.541,28.708a7.233,7.233,0,0,1-4.073,4.155,8.741,8.741,0,0,1-3.209.617,7.973,7.973,0,0,1-3.209-.617,6.846,6.846,0,0,1-2.469-1.646,7.285,7.285,0,0,1-1.6-2.51,8.682,8.682,0,0,1-.576-3.168,8.037,8.037,0,0,1,.576-3.168,7.233,7.233,0,0,1,4.073-4.155,8.912,8.912,0,0,1,3.209-.617,8.115,8.115,0,0,1,3.209.617,7.419,7.419,0,0,1,2.469,1.646,7.943,7.943,0,0,1,1.6,2.51,8.683,8.683,0,0,1,.576,3.168A8.847,8.847,0,0,1,244.541,28.708Zm-2.715-5.431a4.681,4.681,0,0,0-.946-1.728,4.884,4.884,0,0,0-1.563-1.111,5.329,5.329,0,0,0-2.016-.37,5.545,5.545,0,0,0-2.057.37,4.19,4.19,0,0,0-1.563,1.111,5.013,5.013,0,0,0-.987,1.728,6.543,6.543,0,0,0-.329,2.263,7.984,7.984,0,0,0,.329,2.3,5.429,5.429,0,0,0,.987,1.728,4.884,4.884,0,0,0,1.563,1.111,5.545,5.545,0,0,0,2.057.37,5.181,5.181,0,0,0,2.016-.37,4.19,4.19,0,0,0,1.563-1.111,4.375,4.375,0,0,0,.946-1.728,7.985,7.985,0,0,0,.329-2.3A7.494,7.494,0,0,0,241.825,23.278Z" transform="translate(-148.226 -17.559)" fill="#022158"/>
      <path id="Path_53" data-name="Path 53" d="M282.692,17.982v1.275a.6.6,0,0,1-.535.658c-.041,0-.082.041-.123.041s-.165.041-.329.082-.37.082-.617.123V33.534h-1.481a1.2,1.2,0,0,1-.576-.123,1.794,1.794,0,0,1-.453-.37l-8.105-10.327a3.765,3.765,0,0,1,.041.658c0,.206.041.411.041.617v7.406c.905.123,1.358.206,1.4.206a.6.6,0,0,1,.535.658v1.275H266.4V32.259a.6.6,0,0,1,.535-.658.151.151,0,0,0,.123-.041,1.866,1.866,0,0,1,.329-.082,6.456,6.456,0,0,1,.658-.123V20.081c-.247-.041-.494-.082-.658-.123a1.851,1.851,0,0,0-.329-.082.18.18,0,0,1-.123-.041.6.6,0,0,1-.535-.658V17.9h3.127c.123,0,.247.041.329.041a.585.585,0,0,1,.247.082c.082.041.123.082.206.123.082.082.123.165.206.247l8.146,10.368c-.041-.247-.041-.494-.082-.741a3.989,3.989,0,0,1-.041-.7V20.081c-.905-.123-1.358-.206-1.4-.206a.6.6,0,0,1-.535-.658V17.941h6.089Z" transform="translate(-170.003 -17.735)" fill="#022158"/>
      <path id="Path_54" data-name="Path 54" d="M368.441,28.708a7.233,7.233,0,0,1-4.073,4.155,8.741,8.741,0,0,1-3.209.617,7.972,7.972,0,0,1-3.209-.617,6.846,6.846,0,0,1-2.469-1.646,7.284,7.284,0,0,1-1.6-2.51,8.682,8.682,0,0,1-.576-3.168,8.036,8.036,0,0,1,.576-3.168,7.233,7.233,0,0,1,4.073-4.155,8.912,8.912,0,0,1,3.209-.617,8.114,8.114,0,0,1,3.209.617,7.419,7.419,0,0,1,2.469,1.646,7.943,7.943,0,0,1,1.6,2.51,8.683,8.683,0,0,1,.576,3.168A8.037,8.037,0,0,1,368.441,28.708Zm-2.715-5.431a4.682,4.682,0,0,0-.946-1.728,4.884,4.884,0,0,0-1.563-1.111,5.328,5.328,0,0,0-2.016-.37,5.545,5.545,0,0,0-2.057.37,4.19,4.19,0,0,0-1.563,1.111,5.014,5.014,0,0,0-.987,1.728,6.543,6.543,0,0,0-.329,2.263,7.985,7.985,0,0,0,.329,2.3,5.43,5.43,0,0,0,.987,1.728,4.885,4.885,0,0,0,1.563,1.111,5.545,5.545,0,0,0,2.057.37,5.18,5.18,0,0,0,2.016-.37,4.19,4.19,0,0,0,1.563-1.111,4.375,4.375,0,0,0,.946-1.728,7.986,7.986,0,0,0,.329-2.3A6.4,6.4,0,0,0,365.725,23.278Z" transform="translate(-221.15 -17.559)" fill="#022158"/>
      <path id="Path_55" data-name="Path 55" d="M331.609,22.231c-.041-.206-.123-.782-.206-1.728a11.323,11.323,0,0,0-2.962-.494,5.328,5.328,0,0,0-2.016.37,3.886,3.886,0,0,0-1.563,1.111,5.074,5.074,0,0,0-1.029,1.728,6.766,6.766,0,0,0-.37,2.3,6.6,6.6,0,0,0,.37,2.3,5.428,5.428,0,0,0,.987,1.728,4.278,4.278,0,0,0,1.481,1.07,4.65,4.65,0,0,0,1.851.37,8.687,8.687,0,0,0,1.07-.082,4.445,4.445,0,0,0,.864-.206,2.5,2.5,0,0,0,.741-.37,7.3,7.3,0,0,0,.7-.576.86.86,0,0,1,.247-.165.522.522,0,0,1,.247-.041.528.528,0,0,1,.411.165l1.152,1.234a6.084,6.084,0,0,1-2.3,1.769,8.034,8.034,0,0,1-3.333.617,7.379,7.379,0,0,1-3.086-.617,5.927,5.927,0,0,1-2.345-1.646,7,7,0,0,1-1.481-2.51A9.645,9.645,0,0,1,320.5,25.4a8.907,8.907,0,0,1,.576-3.209,6.676,6.676,0,0,1,1.646-2.469,7.01,7.01,0,0,1,2.51-1.646,8.971,8.971,0,0,1,3.25-.576,14.275,14.275,0,0,1,4.855,1.111v4.032H332.1C331.814,22.643,331.691,22.478,331.609,22.231Z" transform="translate(-201.845 -17.5)" fill="#022158"/>
      <path id="Path_56" data-name="Path 56" d="M406.587,17.982v1.275a.6.6,0,0,1-.535.658c-.041,0-.082.041-.123.041s-.165.041-.329.082a6.454,6.454,0,0,1-.658.123v7.159a7.385,7.385,0,0,1-.453,2.551,5.434,5.434,0,0,1-1.275,2.016,6.114,6.114,0,0,1-2.016,1.317,6.89,6.89,0,0,1-2.674.453,7.75,7.75,0,0,1-2.674-.453,6.839,6.839,0,0,1-2.016-1.317,5.787,5.787,0,0,1-1.275-2.016,7.374,7.374,0,0,1-.411-2.551V20.081c-.247-.041-.494-.082-.658-.123a1.85,1.85,0,0,0-.329-.082.18.18,0,0,1-.123-.041.6.6,0,0,1-.535-.658V17.9h6.254v1.275a.6.6,0,0,1-.535.658c-.041,0-.082.041-.165.041a2.087,2.087,0,0,0-.37.082c-.165.041-.411.082-.658.123v7.159a4.7,4.7,0,0,0,.247,1.6,4.015,4.015,0,0,0,.7,1.234,3.177,3.177,0,0,0,1.111.782,3.4,3.4,0,0,0,1.481.288,3.284,3.284,0,0,0,1.481-.288,3.03,3.03,0,0,0,1.111-.782,3.588,3.588,0,0,0,.7-1.234,4.7,4.7,0,0,0,.247-1.6V20.081c-.247-.041-.494-.082-.658-.123a2.087,2.087,0,0,0-.37-.082c-.082,0-.123-.041-.165-.041a.6.6,0,0,1-.535-.658V17.9h6.212Z" transform="translate(-243.045 -17.735)" fill="#022158"/>
      <path id="Path_57" data-name="Path 57" d="M448.334,17.982v1.275a.6.6,0,0,1-.535.658c-.041,0-.082.041-.123.041s-.165.041-.329.082-.37.082-.617.123V33.534h-1.481a1.2,1.2,0,0,1-.576-.123,1.794,1.794,0,0,1-.453-.37l-8.105-10.368a3.765,3.765,0,0,1,.041.658c0,.206.041.411.041.617v7.406c.905.123,1.358.206,1.4.206a.6.6,0,0,1,.535.658v1.275H432V32.218a.6.6,0,0,1,.535-.658.151.151,0,0,0,.123-.041,1.867,1.867,0,0,1,.329-.082,6.459,6.459,0,0,1,.658-.123V20.081c-.247-.041-.494-.082-.658-.123a1.85,1.85,0,0,0-.329-.082.18.18,0,0,1-.123-.041.6.6,0,0,1-.535-.658V17.9h3.127c.123,0,.247.041.329.041a.585.585,0,0,1,.247.082c.082.041.123.082.206.123.082.082.123.165.206.247l8.146,10.368c-.041-.247-.041-.494-.082-.741a3.989,3.989,0,0,1-.041-.7V20.081c-.905-.123-1.358-.206-1.4-.206a.6.6,0,0,1-.535-.658V17.941h6.13Z" transform="translate(-267.471 -17.735)" fill="#022158"/>
      <path id="Path_58" data-name="Path 58" d="M487.078,18.1v3.662h-1.193a.533.533,0,0,1-.535-.411,5.041,5.041,0,0,1-.123-.864h-3.168V31.471q.37.062.617.123a1.851,1.851,0,0,0,.329.082.18.18,0,0,1,.123.041.632.632,0,0,1,.576.658v1.275h-6.13V32.376a.6.6,0,0,1,.535-.658c.041,0,.082-.041.123-.041a1.851,1.851,0,0,0,.329-.082q.247-.062.617-.123V20.445H476.01a5.817,5.817,0,0,1-.123.905c-.082.247-.206.411-.494.411H474.2V18.1h12.878Z" transform="translate(-292.308 -17.853)" fill="#022158"/>
      <path id="Path_59" data-name="Path 59" d="M522.894,17.982v1.275a.6.6,0,0,1-.535.658c-.041,0-.082.041-.123.041a1.849,1.849,0,0,0-.329.082q-.247.062-.617.123l-4.361,7.365v3.909q.37.062.617.123a1.85,1.85,0,0,0,.329.082.18.18,0,0,1,.123.041.6.6,0,0,1,.535.658v1.275H512.4V32.341a.6.6,0,0,1,.535-.658.311.311,0,0,0,.165-.041,1.866,1.866,0,0,1,.329-.082q.247-.062.617-.123V27.527l-4.4-7.447c-.247-.041-.494-.082-.658-.123a1.85,1.85,0,0,0-.329-.082.318.318,0,0,0-.123-.041.6.6,0,0,1-.535-.658V17.9h5.76v1.275a.6.6,0,0,1-.535.658c-.041,0-.041.041-.082.041-.041.041-.123.041-.206.082s-.206.041-.288.082l2.057,3.744a8.225,8.225,0,0,1,.411.864c.123.288.206.576.329.823a6.881,6.881,0,0,1,.329-.823,8.225,8.225,0,0,1,.411-.864l2.016-3.744c-.123-.041-.247-.041-.329-.082a.7.7,0,0,0-.206-.082.151.151,0,0,0-.123-.041.6.6,0,0,1-.535-.658V17.9h5.883Z" transform="translate(-312.202 -17.735)" fill="#022158"/>
      <g id="Group_57" data-name="Group 57" transform="translate(0 21.559)">
        <path id="Path_60" data-name="Path 60" d="M43.908,77.071a7.279,7.279,0,0,1-.453,2.592,5.375,5.375,0,0,1-1.234,1.975,5.049,5.049,0,0,1-1.851,1.234,6.688,6.688,0,0,1-2.427.411h-5.8v-.37c0-.206.123-.288.37-.329h1.111V71.558H32.47c-.247,0-.37-.123-.37-.329V70.9h5.8a6.538,6.538,0,0,1,2.427.411,5.225,5.225,0,0,1,1.851,1.234,5.375,5.375,0,0,1,1.234,1.975A7.218,7.218,0,0,1,43.908,77.071Zm-.946,0a7.012,7.012,0,0,0-.37-2.345A5.429,5.429,0,0,0,41.6,73a4.234,4.234,0,0,0-1.6-1.07,5.545,5.545,0,0,0-2.057-.37H34.527V82.584h3.415A5.545,5.545,0,0,0,40,82.214a4.264,4.264,0,0,0,2.592-2.8A6.68,6.68,0,0,0,42.962,77.071Z" transform="translate(-32.1 -70.489)" fill="#022158"/>
        <path id="Path_61" data-name="Path 61" d="M70.366,79.629a3.288,3.288,0,0,1,1.111.741,3.655,3.655,0,0,1,.741,1.234,5.122,5.122,0,0,1,.247,1.646.348.348,0,0,1-.082.247.214.214,0,0,1-.165.082H65.882V83.7a5.47,5.47,0,0,0,.247,1.728,3.528,3.528,0,0,0,.658,1.234,2.642,2.642,0,0,0,1.029.741,3.624,3.624,0,0,0,1.358.247,3.244,3.244,0,0,0,1.152-.165,5.667,5.667,0,0,0,.823-.329,4.339,4.339,0,0,0,.535-.329.386.386,0,0,1,.288-.123.214.214,0,0,1,.165.082l.247.288a2.383,2.383,0,0,1-.576.494,2.729,2.729,0,0,1-.782.37,3.709,3.709,0,0,1-.905.247,4.006,4.006,0,0,1-.987.082,4.191,4.191,0,0,1-1.646-.288,3.453,3.453,0,0,1-1.275-.905,3.964,3.964,0,0,1-.823-1.481A5.869,5.869,0,0,1,65.1,83.62a5.627,5.627,0,0,1,.288-1.728,3.68,3.68,0,0,1,.782-1.358,3.437,3.437,0,0,1,1.234-.905,4.4,4.4,0,0,1,1.687-.329A3.657,3.657,0,0,1,70.366,79.629Zm-2.551.576a2.361,2.361,0,0,0-.946.617,2.521,2.521,0,0,0-.617.946A8.92,8.92,0,0,0,65.923,83h5.8a3.944,3.944,0,0,0-.206-1.275,3.532,3.532,0,0,0-.535-.946,2.732,2.732,0,0,0-.864-.617,3.141,3.141,0,0,0-1.111-.206A3.408,3.408,0,0,0,67.815,80.205Z" transform="translate(-51.523 -75.433)" fill="#022158"/>
        <path id="Path_62" data-name="Path 62" d="M94.963,79.8v.329c0,.206-.123.288-.37.329h-.617l-3.415,8.105H89.82l-3.415-8.105h-.576c-.247,0-.329-.123-.329-.329V79.8h3.086v.329c0,.206-.123.288-.37.329h-.946l2.715,6.459.123.37a1.782,1.782,0,0,1,.041.206c0,.082,0,.123.041.165.041-.123.041-.247.082-.37l.123-.37,2.715-6.459h-.905c-.247,0-.37-.123-.37-.329V79.8h3.127Z" transform="translate(-63.53 -75.727)" fill="#022158"/>
        <path id="Path_63" data-name="Path 63" d="M115.466,79.629a3.288,3.288,0,0,1,1.111.741,3.655,3.655,0,0,1,.741,1.234,5.122,5.122,0,0,1,.247,1.646.348.348,0,0,1-.082.247.214.214,0,0,1-.165.082h-6.336V83.7a5.47,5.47,0,0,0,.247,1.728,3.528,3.528,0,0,0,.658,1.234,2.642,2.642,0,0,0,1.029.741,3.624,3.624,0,0,0,1.358.247,3.244,3.244,0,0,0,1.152-.165,5.667,5.667,0,0,0,.823-.329,4.339,4.339,0,0,0,.535-.329.386.386,0,0,1,.288-.123.214.214,0,0,1,.165.082l.247.288a2.383,2.383,0,0,1-.576.494,2.729,2.729,0,0,1-.782.37,3.709,3.709,0,0,1-.905.247,4.006,4.006,0,0,1-.987.082,4.191,4.191,0,0,1-1.646-.288,3.453,3.453,0,0,1-1.275-.905,3.964,3.964,0,0,1-.823-1.481,5.869,5.869,0,0,1-.288-1.975,5.627,5.627,0,0,1,.288-1.728,3.68,3.68,0,0,1,.782-1.358,3.437,3.437,0,0,1,1.234-.905,4.4,4.4,0,0,1,1.687-.329A3.9,3.9,0,0,1,115.466,79.629Zm-2.592.576a2.361,2.361,0,0,0-.946.617,2.521,2.521,0,0,0-.617.946A8.92,8.92,0,0,0,110.982,83h5.8a3.944,3.944,0,0,0-.206-1.275,3.532,3.532,0,0,0-.535-.946,2.732,2.732,0,0,0-.864-.617,3.141,3.141,0,0,0-1.111-.206A3.854,3.854,0,0,0,112.874,80.205Z" transform="translate(-78.068 -75.433)" fill="#022158"/>
        <path id="Path_64" data-name="Path 64" d="M135.274,82.407v.37H131.9v-.37c0-.206.123-.288.37-.329h.411c.123,0,.329-.041.494-.041V70.6h-.864c-.247,0-.37-.123-.37-.329V69.9h2.139V82.037h.864A.36.36,0,0,1,135.274,82.407Z" transform="translate(-90.84 -69.9)" fill="#022158"/>
        <path id="Path_65" data-name="Path 65" d="M149.119,79.729a3.016,3.016,0,0,1,1.234.905,3.723,3.723,0,0,1,.782,1.44,6.712,6.712,0,0,1,.247,1.851,6.3,6.3,0,0,1-.247,1.851,4.434,4.434,0,0,1-.782,1.44,3.437,3.437,0,0,1-1.234.905,4.25,4.25,0,0,1-1.687.329,4.4,4.4,0,0,1-1.687-.329,3.453,3.453,0,0,1-1.275-.905,3.256,3.256,0,0,1-.782-1.44,6.095,6.095,0,0,1,0-3.7,3.5,3.5,0,0,1,.782-1.44,4,4,0,0,1,1.275-.905,4.4,4.4,0,0,1,1.687-.329A4.25,4.25,0,0,1,149.119,79.729Zm-.329,7.776a2.609,2.609,0,0,0,.987-.782,3.433,3.433,0,0,0,.576-1.234,6.326,6.326,0,0,0,.206-1.6,6.583,6.583,0,0,0-.206-1.6,3.8,3.8,0,0,0-.576-1.234,2.609,2.609,0,0,0-.987-.782,3.857,3.857,0,0,0-2.715,0,2.609,2.609,0,0,0-.987.782,3.433,3.433,0,0,0-.576,1.234,6.327,6.327,0,0,0-.206,1.6,5.051,5.051,0,0,0,.206,1.6,3.8,3.8,0,0,0,.576,1.234,2.61,2.61,0,0,0,.987.782,3.476,3.476,0,0,0,1.358.247A2.864,2.864,0,0,0,148.79,87.505Z" transform="translate(-97.608 -75.491)" fill="#022158"/>
        <path id="Path_66" data-name="Path 66" d="M174.14,83.943a6.629,6.629,0,0,1-.247,1.81,4.347,4.347,0,0,1-.741,1.44,3.293,3.293,0,0,1-1.193.946,3.417,3.417,0,0,1-1.6.37,3.651,3.651,0,0,1-1.563-.329,2.56,2.56,0,0,1-1.111-.987v3.579h.864c.247,0,.37.123.37.329v.37H165.5V91.1c0-.206.123-.288.37-.329h.411c.123,0,.329-.041.494-.041V80.323h-.864c-.247,0-.37-.123-.37-.329v-.329h1.728a.371.371,0,0,1,.206.041.214.214,0,0,1,.082.165l.082,1.358A4.27,4.27,0,0,1,169,79.994a3.238,3.238,0,0,1,1.728-.494,3.023,3.023,0,0,1,2.51,1.111A5.366,5.366,0,0,1,174.14,83.943Zm-.864,0a4.557,4.557,0,0,0-.741-2.88,2.438,2.438,0,0,0-2.057-.905,2.8,2.8,0,0,0-1.6.453,4.076,4.076,0,0,0-1.234,1.275v4.608a2.816,2.816,0,0,0,2.51,1.4,2.868,2.868,0,0,0,1.358-.288,3.6,3.6,0,0,0,.987-.782,3.861,3.861,0,0,0,.617-1.234A10.619,10.619,0,0,0,173.276,83.943Z" transform="translate(-110.616 -75.55)" fill="#022158"/>
        <path id="Path_67" data-name="Path 67" d="M204.806,88.058v.37h-2.1V82.791a3.134,3.134,0,0,0-.576-1.975,1.941,1.941,0,0,0-1.6-.658,2.024,2.024,0,0,0-.864.165,2.335,2.335,0,0,0-.741.494,2.309,2.309,0,0,0-.494.823,3.244,3.244,0,0,0-.165,1.152v4.9h.864c.247,0,.37.123.37.329v.37h-2.139v-5.6a3.419,3.419,0,0,0-.494-1.975,1.7,1.7,0,0,0-1.481-.658,2.174,2.174,0,0,0-1.317.411,3.908,3.908,0,0,0-1.111,1.193v5.925h.946c.247,0,.329.123.329.329v.37H190.9v-.37c0-.206.123-.288.329-.329h.411c.123,0,.329-.041.535-.041V80.323h-.946c-.247,0-.329-.123-.329-.329v-.329h1.728c.165,0,.247.082.247.206l.082,1.275c.165-.247.37-.453.535-.658a7.151,7.151,0,0,1,.617-.535,5.356,5.356,0,0,1,.7-.329,2.4,2.4,0,0,1,.782-.123,2.089,2.089,0,0,1,1.522.535,3.3,3.3,0,0,1,.782,1.563,2.892,2.892,0,0,1,.453-.946,3.324,3.324,0,0,1,.658-.658,2.728,2.728,0,0,1,.782-.37,3.427,3.427,0,0,1,.905-.123,3.2,3.2,0,0,1,1.152.206,2.363,2.363,0,0,1,.905.617,2.443,2.443,0,0,1,.535,1.029,4.769,4.769,0,0,1,.206,1.4v4.9h.946C204.683,87.729,204.806,87.852,204.806,88.058Z" transform="translate(-125.565 -75.55)" fill="#022158"/>
        <path id="Path_68" data-name="Path 68" d="M233.266,79.629a3.288,3.288,0,0,1,1.111.741,3.655,3.655,0,0,1,.741,1.234,5.123,5.123,0,0,1,.247,1.646.348.348,0,0,1-.082.247.214.214,0,0,1-.165.082h-6.336V83.7a5.47,5.47,0,0,0,.247,1.728,3.527,3.527,0,0,0,.658,1.234,2.642,2.642,0,0,0,1.029.741,3.624,3.624,0,0,0,1.358.247,3.244,3.244,0,0,0,1.152-.165,5.665,5.665,0,0,0,.823-.329,4.338,4.338,0,0,0,.535-.329.386.386,0,0,1,.288-.123.214.214,0,0,1,.165.082l.247.288a2.383,2.383,0,0,1-.576.494,2.729,2.729,0,0,1-.782.37,3.709,3.709,0,0,1-.905.247,4.006,4.006,0,0,1-.987.082,4.191,4.191,0,0,1-1.646-.288,3.453,3.453,0,0,1-1.275-.905,3.964,3.964,0,0,1-.823-1.481A5.869,5.869,0,0,1,228,83.62a5.627,5.627,0,0,1,.288-1.728,3.679,3.679,0,0,1,.782-1.358,3.437,3.437,0,0,1,1.234-.905,4.4,4.4,0,0,1,1.687-.329A3.9,3.9,0,0,1,233.266,79.629Zm-2.592.576a2.361,2.361,0,0,0-.946.617,2.521,2.521,0,0,0-.617.946A5.413,5.413,0,0,0,228.782,83h5.8a3.944,3.944,0,0,0-.206-1.275,3.532,3.532,0,0,0-.535-.946,2.731,2.731,0,0,0-.864-.617,3.141,3.141,0,0,0-1.111-.206A3.854,3.854,0,0,0,230.674,80.205Z" transform="translate(-147.402 -75.433)" fill="#022158"/>
        <path id="Path_69" data-name="Path 69" d="M259.663,88.058v.37h-2.139V82.791a3.009,3.009,0,0,0-.576-1.934,2.113,2.113,0,0,0-1.728-.7,2.8,2.8,0,0,0-1.6.453,4.149,4.149,0,0,0-1.317,1.234v5.883h.946c.247,0,.329.123.329.329v.37H250.2v-.37c0-.206.123-.288.329-.329h.411c.123,0,.329-.041.535-.041V80.323h-.946c-.247,0-.329-.123-.329-.329v-.329h1.728c.165,0,.247.082.247.206l.082,1.317a5.7,5.7,0,0,1,1.4-1.234,3.647,3.647,0,0,1,1.769-.453,3.067,3.067,0,0,1,1.275.247,2.453,2.453,0,0,1,.905.658,2.72,2.72,0,0,1,.535,1.029,4.7,4.7,0,0,1,.206,1.358v4.9h.864C259.539,87.729,259.663,87.852,259.663,88.058Z" transform="translate(-160.468 -75.55)" fill="#022158"/>
        <path id="Path_70" data-name="Path 70" d="M278.234,83.82a2.052,2.052,0,0,1-.494-1.522V76.291h-1.234a.214.214,0,0,1-.165-.082.151.151,0,0,1-.041-.123v-.329l1.481-.123.206-3.127c0-.041.041-.123.082-.123s.082-.082.123-.082h.411v3.333h2.757v.658H278.6v5.966a1.405,1.405,0,0,0,.082.617,1.8,1.8,0,0,0,.247.411.971.971,0,0,0,.37.247,1.768,1.768,0,0,0,.494.082,1.129,1.129,0,0,0,.535-.082,3.825,3.825,0,0,0,.411-.206c.123-.082.206-.123.247-.206a.164.164,0,0,1,.165-.082c.041,0,.082,0,.123.082l.247.37a2.131,2.131,0,0,1-.864.576,3.362,3.362,0,0,1-1.07.247A1.835,1.835,0,0,1,278.234,83.82Z" transform="translate(-175.83 -71.313)" fill="#022158"/>
        <path id="Path_71" data-name="Path 71" d="M315.927,81.444a5.1,5.1,0,0,1-.864.741,5.665,5.665,0,0,1-.987.576,5.747,5.747,0,0,1-1.193.37,7.828,7.828,0,0,1-1.44.123A6.108,6.108,0,0,1,309.1,82.8a4.97,4.97,0,0,1-1.851-1.275,6.091,6.091,0,0,1-1.193-2.016,7.512,7.512,0,0,1-.453-2.633,6.606,6.606,0,0,1,.453-2.592,5.917,5.917,0,0,1,1.234-2.016,5.763,5.763,0,0,1,1.934-1.317,6,6,0,0,1,2.469-.453,11.285,11.285,0,0,1,3.991.864V74.2h-.411c-.247,0-.37-.123-.37-.411,0-.123-.041-.782-.123-1.934a7.5,7.5,0,0,0-3.086-.576,5.926,5.926,0,0,0-2.1.37,4.485,4.485,0,0,0-1.646,1.111,5.094,5.094,0,0,0-1.07,1.769,7.012,7.012,0,0,0-.37,2.345,6.843,6.843,0,0,0,.37,2.345,5.094,5.094,0,0,0,1.07,1.769,4.19,4.19,0,0,0,1.563,1.111,5.268,5.268,0,0,0,1.975.37,10.193,10.193,0,0,0,1.193-.082,3.862,3.862,0,0,0,.987-.247,5.12,5.12,0,0,0,.823-.411,4.9,4.9,0,0,0,.741-.617.088.088,0,0,0,.082-.082h.082c.041,0,.123.041.123.082Z" transform="translate(-193.075 -70.253)" fill="#022158"/>
        <path id="Path_72" data-name="Path 72" d="M339.919,79.729a3.016,3.016,0,0,1,1.234.905,3.723,3.723,0,0,1,.782,1.44,6.712,6.712,0,0,1,.247,1.851,6.3,6.3,0,0,1-.247,1.851,4.434,4.434,0,0,1-.782,1.44,3.437,3.437,0,0,1-1.234.905,4.25,4.25,0,0,1-1.687.329,4.4,4.4,0,0,1-1.687-.329,3.453,3.453,0,0,1-1.275-.905,3.256,3.256,0,0,1-.782-1.44,6.1,6.1,0,0,1,0-3.7,3.5,3.5,0,0,1,.782-1.44,4,4,0,0,1,1.275-.905,4.4,4.4,0,0,1,1.687-.329A4.25,4.25,0,0,1,339.919,79.729Zm-.329,7.776a2.61,2.61,0,0,0,.987-.782,3.433,3.433,0,0,0,.576-1.234,6.325,6.325,0,0,0,.206-1.6,6.582,6.582,0,0,0-.206-1.6,3.8,3.8,0,0,0-.576-1.234,2.609,2.609,0,0,0-.987-.782,3.857,3.857,0,0,0-2.715,0,2.609,2.609,0,0,0-.987.782,3.432,3.432,0,0,0-.576,1.234,6.325,6.325,0,0,0-.206,1.6,5.05,5.05,0,0,0,.206,1.6,3.8,3.8,0,0,0,.576,1.234,2.609,2.609,0,0,0,.987.782,3.476,3.476,0,0,0,1.358.247A2.373,2.373,0,0,0,339.59,87.505Z" transform="translate(-209.908 -75.491)" fill="#022158"/>
        <path id="Path_73" data-name="Path 73" d="M371.147,88.058v.37h-2.1V82.791a3.134,3.134,0,0,0-.576-1.975,1.941,1.941,0,0,0-1.6-.658,2.024,2.024,0,0,0-.864.165,2.335,2.335,0,0,0-.741.494,2.309,2.309,0,0,0-.494.823,3.244,3.244,0,0,0-.165,1.152v4.9h.864c.247,0,.37.123.37.329v.37H363.7v-5.6a3.419,3.419,0,0,0-.494-1.975,1.7,1.7,0,0,0-1.481-.658,2.174,2.174,0,0,0-1.317.411,3.909,3.909,0,0,0-1.111,1.193v5.925h.946c.247,0,.329.123.329.329v.37H357.2v-.37c0-.206.123-.288.329-.329h.411c.123,0,.329-.041.535-.041V80.323h-.946c-.247,0-.329-.123-.329-.329v-.329h1.728c.165,0,.247.082.247.206l.082,1.275c.165-.247.37-.453.535-.658a7.142,7.142,0,0,1,.617-.535,5.356,5.356,0,0,1,.7-.329,2.4,2.4,0,0,1,.782-.123,2.089,2.089,0,0,1,1.522.535,3.3,3.3,0,0,1,.782,1.563,2.893,2.893,0,0,1,.453-.946,3.326,3.326,0,0,1,.658-.658,2.728,2.728,0,0,1,.782-.37,3.427,3.427,0,0,1,.905-.123,3.2,3.2,0,0,1,1.152.206,2.363,2.363,0,0,1,.905.617,2.719,2.719,0,0,1,.535,1.029,4.769,4.769,0,0,1,.206,1.4v4.9h.946C371.024,87.729,371.147,87.852,371.147,88.058Z" transform="translate(-223.445 -75.55)" fill="#022158"/>
        <path id="Path_74" data-name="Path 74" d="M409.447,88.058v.37h-2.1V82.791a3.134,3.134,0,0,0-.576-1.975,1.941,1.941,0,0,0-1.6-.658,2.024,2.024,0,0,0-.864.165,2.335,2.335,0,0,0-.741.494,2.309,2.309,0,0,0-.494.823,3.245,3.245,0,0,0-.165,1.152v4.9h.864c.247,0,.37.123.37.329v.37H402v-5.6a3.419,3.419,0,0,0-.494-1.975,1.7,1.7,0,0,0-1.481-.658,2.174,2.174,0,0,0-1.317.411,3.908,3.908,0,0,0-1.111,1.193v5.925h.946c.247,0,.329.123.329.329v.37H395.5v-.37c0-.206.123-.288.329-.329h.411c.123,0,.329-.041.535-.041V80.323h-.905c-.247,0-.329-.123-.329-.329v-.329h1.728c.165,0,.247.082.247.206l.082,1.275c.165-.247.37-.453.535-.658a7.152,7.152,0,0,1,.617-.535,5.355,5.355,0,0,1,.7-.329,2.4,2.4,0,0,1,.782-.123,2.089,2.089,0,0,1,1.522.535,3.3,3.3,0,0,1,.782,1.563,2.892,2.892,0,0,1,.453-.946,3.326,3.326,0,0,1,.658-.658,2.729,2.729,0,0,1,.782-.37,3.427,3.427,0,0,1,.905-.123,3.2,3.2,0,0,1,1.152.206,2.363,2.363,0,0,1,.905.617,2.719,2.719,0,0,1,.535,1.029,4.77,4.77,0,0,1,.206,1.4v4.9h.946C409.365,87.729,409.447,87.852,409.447,88.058Z" transform="translate(-245.988 -75.55)" fill="#022158"/>
        <path id="Path_75" data-name="Path 75" d="M437.274,82.878v.37H433.9v-.37c0-.206.123-.288.37-.329h.411c.123,0,.329-.041.494-.041V75.143h-.864c-.247,0-.37-.123-.37-.329v-.37h2.139v8.064h.864A.36.36,0,0,1,437.274,82.878Zm-2.386-11.15a.763.763,0,0,1-.082-.288.6.6,0,0,1,.082-.288.756.756,0,0,1,.411-.411.7.7,0,0,1,.288-.041.61.61,0,0,1,.288.041c.082.041.165.123.247.165a.86.86,0,0,1,.165.247,1.047,1.047,0,0,1,.082.288.6.6,0,0,1-.082.288c-.041.082-.123.165-.165.247a.861.861,0,0,1-.247.165.763.763,0,0,1-.288.082.6.6,0,0,1-.288-.082.756.756,0,0,1-.411-.411Z" transform="translate(-268.589 -70.371)" fill="#022158"/>
        <path id="Path_76" data-name="Path 76" d="M452.76,85.836a3.092,3.092,0,0,1-.206,1.07,2.1,2.1,0,0,1-.617.864,2.327,2.327,0,0,1-.987.576,4.211,4.211,0,0,1-1.317.206,7.236,7.236,0,0,1-2.592-.494V85.918h.411c.247,0,.37.123.37.411v.206a2.019,2.019,0,0,0,.041.453c0,.206.041.411.041.617a4.343,4.343,0,0,0,1.728.288,2.489,2.489,0,0,0,.987-.165,2.853,2.853,0,0,0,.7-.411,1.718,1.718,0,0,0,.453-.617,2.328,2.328,0,0,0,.123-.741,1.421,1.421,0,0,0-.206-.741,1.368,1.368,0,0,0-.576-.494c-.247-.123-.494-.247-.782-.37-.288-.082-.617-.206-.905-.288-.329-.082-.617-.206-.905-.288a4.691,4.691,0,0,1-.782-.411,1.538,1.538,0,0,1-.535-.617,1.962,1.962,0,0,1-.206-.905,1.725,1.725,0,0,1,.206-.905,2.01,2.01,0,0,1,.576-.741,3.192,3.192,0,0,1,.905-.494,3.624,3.624,0,0,1,1.193-.206,7.234,7.234,0,0,1,2.345.453v2.1h-.411c-.247,0-.37-.123-.37-.411v-.206a2.022,2.022,0,0,0-.041-.453c0-.206-.041-.411-.041-.617a4.365,4.365,0,0,0-1.4-.247,2.735,2.735,0,0,0-.864.123,1.717,1.717,0,0,0-.658.37,2.608,2.608,0,0,0-.453.535,1.113,1.113,0,0,0-.123.617,1.275,1.275,0,0,0,.206.7,1.947,1.947,0,0,0,.535.453,4.458,4.458,0,0,0,.782.329c.288.082.617.206.905.288a8,8,0,0,1,.905.329,4.688,4.688,0,0,1,.782.411,1.537,1.537,0,0,1,.535.617A1.8,1.8,0,0,1,452.76,85.836Z" transform="translate(-276.299 -75.55)" fill="#022158"/>
        <path id="Path_77" data-name="Path 77" d="M471.56,85.836a3.091,3.091,0,0,1-.206,1.07,2.1,2.1,0,0,1-.617.864,2.328,2.328,0,0,1-.987.576,4.21,4.21,0,0,1-1.317.206,7.236,7.236,0,0,1-2.592-.494V85.918h.411c.247,0,.37.123.37.411v.206a2.018,2.018,0,0,0,.041.453c0,.206.041.411.041.617a4.343,4.343,0,0,0,1.728.288,2.489,2.489,0,0,0,.987-.165,2.853,2.853,0,0,0,.7-.411,1.719,1.719,0,0,0,.453-.617,2.329,2.329,0,0,0,.123-.741,1.421,1.421,0,0,0-.206-.741,1.368,1.368,0,0,0-.576-.494c-.247-.123-.494-.247-.782-.37-.288-.082-.617-.206-.905-.288-.329-.082-.617-.206-.905-.288a4.69,4.69,0,0,1-.782-.411,1.538,1.538,0,0,1-.535-.617,1.961,1.961,0,0,1-.206-.905,1.725,1.725,0,0,1,.206-.905,2.011,2.011,0,0,1,.576-.741,3.193,3.193,0,0,1,.905-.494,3.624,3.624,0,0,1,1.193-.206,7.234,7.234,0,0,1,2.345.453v2.1h-.411c-.247,0-.37-.123-.37-.411v-.206a2.021,2.021,0,0,0-.041-.453c0-.206-.041-.411-.041-.617a4.365,4.365,0,0,0-1.4-.247,2.735,2.735,0,0,0-.864.123,1.716,1.716,0,0,0-.658.37,2.61,2.61,0,0,0-.453.535,1.113,1.113,0,0,0-.123.617,1.275,1.275,0,0,0,.206.7,1.947,1.947,0,0,0,.535.453,4.459,4.459,0,0,0,.782.329c.288.082.617.206.905.288a8,8,0,0,1,.905.329,4.688,4.688,0,0,1,.782.411,1.537,1.537,0,0,1,.535.617A1.8,1.8,0,0,1,471.56,85.836Z" transform="translate(-287.364 -75.55)" fill="#022158"/>
        <path id="Path_78" data-name="Path 78" d="M487.515,82.878v.37H484.1v-.37c0-.206.123-.288.37-.329h.411c.123,0,.329-.041.494-.041V75.143h-.905c-.247,0-.37-.123-.37-.329v-.37h2.139v8.064h.864C487.391,82.549,487.515,82.672,487.515,82.878Zm-2.427-11.15a.763.763,0,0,1-.082-.288.6.6,0,0,1,.082-.288.756.756,0,0,1,.411-.411.7.7,0,0,1,.288-.041.61.61,0,0,1,.288.041c.082.041.165.123.247.165a.86.86,0,0,1,.165.247,1.047,1.047,0,0,1,.082.288.6.6,0,0,1-.082.288c-.041.082-.123.165-.165.247a.86.86,0,0,1-.247.165.763.763,0,0,1-.288.082.6.6,0,0,1-.288-.082.861.861,0,0,1-.247-.165C485.211,71.893,485.129,71.811,485.087,71.729Z" transform="translate(-298.135 -70.371)" fill="#022158"/>
        <path id="Path_79" data-name="Path 79" d="M501.519,79.729a3.016,3.016,0,0,1,1.234.905,3.725,3.725,0,0,1,.782,1.44,6.713,6.713,0,0,1,.247,1.851,6.305,6.305,0,0,1-.247,1.851,4.435,4.435,0,0,1-.782,1.44,3.437,3.437,0,0,1-1.234.905,4.25,4.25,0,0,1-1.687.329,4.4,4.4,0,0,1-1.687-.329,3.453,3.453,0,0,1-1.275-.905,3.256,3.256,0,0,1-.782-1.44,6.094,6.094,0,0,1,0-3.7,3.5,3.5,0,0,1,.782-1.44,4,4,0,0,1,1.275-.905,4.487,4.487,0,0,1,3.374,0Zm-.329,7.776a2.61,2.61,0,0,0,.987-.782,3.434,3.434,0,0,0,.576-1.234,6.327,6.327,0,0,0,.206-1.6,6.584,6.584,0,0,0-.206-1.6,3.8,3.8,0,0,0-.576-1.234,2.61,2.61,0,0,0-.987-.782,3.857,3.857,0,0,0-2.715,0,2.609,2.609,0,0,0-.987.782,3.432,3.432,0,0,0-.576,1.234,6.327,6.327,0,0,0-.206,1.6,5.051,5.051,0,0,0,.206,1.6,3.8,3.8,0,0,0,.576,1.234,2.609,2.609,0,0,0,.987.782,3.476,3.476,0,0,0,1.358.247A2.441,2.441,0,0,0,501.19,87.505Z" transform="translate(-305.022 -75.491)" fill="#022158"/>
        <path id="Path_80" data-name="Path 80" d="M527.163,88.058v.37h-2.139V82.791a3.008,3.008,0,0,0-.576-1.934,2.113,2.113,0,0,0-1.728-.7,2.8,2.8,0,0,0-1.6.453,4.15,4.15,0,0,0-1.317,1.234v5.883h.946c.247,0,.329.123.329.329v.37H517.7v-.37c0-.206.123-.288.329-.329h.411c.123,0,.329-.041.535-.041V80.323h-.946c-.247,0-.329-.123-.329-.329v-.329h1.728c.165,0,.247.082.247.206l.082,1.317a5.7,5.7,0,0,1,1.4-1.234,3.647,3.647,0,0,1,1.769-.453,3.067,3.067,0,0,1,1.275.247,2.454,2.454,0,0,1,.905.658,2.719,2.719,0,0,1,.535,1.029,4.7,4.7,0,0,1,.206,1.358v4.9h.864C527.039,87.729,527.163,87.852,527.163,88.058Z" transform="translate(-317.911 -75.55)" fill="#022158"/>
      </g>
    </g>
    <g id="harrison-county-mark-01" transform="translate(14 3)">
      <g id="Group_59" data-name="Group 59" transform="translate(0 0)">
        <path id="Path_81" data-name="Path 81" d="M19.834,49.329A32.556,32.556,0,0,0,18.2,64.395,27.13,27.13,0,0,0,28.027,72.7c-.039-.039-.039-.078-.078-.116C25,67.462,19.64,60.24,20.766,51.193c4.621,13.9,11.338,22.171,20.191,25.239,4.543-.194,9.707-2.835,13.4-5.048-10.484-.932-27.724-8.038-31.8-21.006-1.514-4.815-.388-7.339,1.67-9.513-.233.854-2.718,5.125-.427,9.63,3.067,6.057,11.144,12.192,21.123,12.7,7.416.388,15.027-.466,19.181-1.98a27.136,27.136,0,1,0-50.633-7.727A17.954,17.954,0,0,1,19.834,49.329Z" transform="translate(-13 -15.432)" fill="#1c2857"/>
        <g id="Group_58" data-name="Group 58" transform="translate(11.765)">
          <path id="Path_82" data-name="Path 82" d="M61.977,9.19,60.54,29.458H51.8l.7-14.716s-2.291,1.01-3.961,1.825a14.734,14.734,0,0,0-4.155,3.106L43.3,35.166c0,7.106,6.368,10.989,7.416,11.105l.7-10.445h8.775l-.932,13.629A23.689,23.689,0,0,0,67.024,50.7l3.3-44.5Z" transform="translate(-43.3 -6.2)" fill="#fdb717"/>
        </g>
      </g>
      <g id="Group_60" data-name="Group 60" transform="translate(20.773 16.764)">
        <path id="Path_83" data-name="Path 83" d="M104.824,52.335a2.6,2.6,0,1,0-1.243,3.533C99,63.284,87.545,60.489,83.468,54.509a12.745,12.745,0,0,0-7.222-4.892c-4.349-1.048-9.552,1.631-9.552,1.631L66.5,55.169s5.785-.039,8.969,2.873c2.446,2.213,4,4.621,3.145,7.688a5.678,5.678,0,0,0,.893-5.087c-2.757-7.8-9.591-7.222-9.591-7.222s5.475-4.621,12.231,5.164a8.818,8.818,0,0,0,4.271,3.106,17.75,17.75,0,0,0,10.989.5,12.376,12.376,0,0,0,4.621-2.33,8.314,8.314,0,0,0,2.718-4,7.452,7.452,0,0,0,.349-2.136A3.328,3.328,0,0,0,104.824,52.335Z" transform="translate(-66.5 -49.373)" fill="#47c5dd"/>
      </g>
    </g>
  </g>
</svg>
