<svg xmlns="http://www.w3.org/2000/svg" xmlns:xlink="http://www.w3.org/1999/xlink" width="142" height="143" viewBox="0 0 142 143">
  <defs>
    <clipPath id="clip-skills_icon">
      <rect width="142" height="143"/>
    </clipPath>
  </defs>
  <g id="skills_icon" data-name="skills icon" clip-path="url(#clip-skills_icon)">
    <circle id="Ellipse_1" data-name="Ellipse 1" cx="71" cy="71" r="71" fill="#f69442"/>
    <g id="idea" transform="translate(31.656 21.255)">
      <g id="Group_30" data-name="Group 30" transform="translate(0 8.102)">
        <g id="Group_29" data-name="Group 29" transform="translate(0)">
          <path id="Path_28" data-name="Path 28" d="M84.479,72.912a1.621,1.621,0,0,0-1.183-.5H73.281a1.62,1.62,0,0,0-1.62,2.155,3.06,3.06,0,0,1,.292,1.086,3.241,3.241,0,0,1-6.482,0,3.065,3.065,0,0,1,.211-1.086,1.621,1.621,0,0,0-1.62-2.155H54.127V63.043a1.621,1.621,0,0,0-2.706-1.2,3.241,3.241,0,1,1,0-4.8,1.62,1.62,0,0,0,2.706-1.2V41.62A1.621,1.621,0,0,0,52.506,40a32.41,32.41,0,0,0-14.584,61.319v11.894a4.823,4.823,0,0,0-1.977,7.811,4.841,4.841,0,0,0,3.6,8.1H65.471a4.841,4.841,0,0,0,3.6-8.1,4.823,4.823,0,0,0-1.977-7.811V101.319A32.28,32.28,0,0,0,84.916,74.111,1.621,1.621,0,0,0,84.479,72.912ZM65.47,125.886H39.543a1.62,1.62,0,1,1,0-3.241H65.47a1.62,1.62,0,1,1,0,3.241Zm0-6.482H39.543a1.62,1.62,0,0,1,0-3.241H65.47a1.62,1.62,0,0,1,0,3.241ZM47.645,88.615h-1.62a1.62,1.62,0,1,1,1.62-1.62Zm3.241,24.307V91.856h3.241v21.066ZM64.79,98.84a1.62,1.62,0,0,0-.94,1.475v12.607H57.368V91.856h1.62a4.861,4.861,0,1,0-4.861-4.861v1.62H50.886v-1.62a4.861,4.861,0,1,0-4.861,4.861h1.62v21.066H41.163V100.315a1.62,1.62,0,0,0-.94-1.475,29.169,29.169,0,0,1,10.663-55.6v9.885a6.018,6.018,0,0,0-1.62-.162,6.482,6.482,0,1,0,0,12.964,6.013,6.013,0,0,0,1.62-.211V74.03a1.621,1.621,0,0,0,1.62,1.62h9.723a6.482,6.482,0,0,0,12.964,0h6.287A29.071,29.071,0,0,1,64.79,98.84ZM57.368,88.615v-1.62a1.62,1.62,0,1,1,1.62,1.62Z" transform="translate(-20.163 -40)" fill="#fff"/>
        </g>
      </g>
      <g id="Group_32" data-name="Group 32" transform="translate(46.928)">
        <g id="Group_31" data-name="Group 31">
          <path id="Path_29" data-name="Path 29" d="M261.56,0a1.621,1.621,0,0,0-1.62,1.62V13.175a6.013,6.013,0,0,0-1.621-.211,6.482,6.482,0,0,0,0,12.964,6.013,6.013,0,0,0,1.621-.211V34.03a1.621,1.621,0,0,0,1.62,1.62h9.723a6.482,6.482,0,1,0,12.964,0h8.1a1.782,1.782,0,0,0,1.621-1.62V32.41A32.41,32.41,0,0,0,261.56,0Zm20.823,32.41a1.62,1.62,0,0,0-1.621,2.155,3.06,3.06,0,0,1,.243,1.086,3.241,3.241,0,1,1-6.482,0,3.065,3.065,0,0,1,.211-1.086,1.621,1.621,0,0,0-1.621-2.155H263.18V23.043a1.621,1.621,0,0,0-2.706-1.2,3.241,3.241,0,1,1,0-4.861,1.62,1.62,0,0,0,2.706-1.134V3.241A29.169,29.169,0,0,1,290.729,32.41Z" transform="translate(-251.837)" fill="#fff"/>
        </g>
      </g>
    </g>
  </g>
</svg>
