<svg xmlns="http://www.w3.org/2000/svg" xmlns:xlink="http://www.w3.org/1999/xlink" width="142" height="143" viewBox="0 0 142 143">
  <defs>
    <clipPath id="clip-skills_icon_1">
      <rect width="142" height="143"/>
    </clipPath>
  </defs>
  <g id="skills_icon_1" data-name="skills icon – 1" clip-path="url(#clip-skills_icon_1)">
    <circle id="Ellipse_1" data-name="Ellipse 1" cx="71" cy="71" r="71" fill="#f69442"/>
    <g id="idea" transform="translate(15.837 13.5)">
      <g id="Group_30" data-name="Group 30" transform="translate(20.163 8.958)">
        <g id="Group_29" data-name="Group 29" transform="translate(0)">
          <path id="Path_28" data-name="Path 28" d="M91.273,76.389a1.792,1.792,0,0,0-1.308-.555H78.892A1.792,1.792,0,0,0,77.1,78.216a3.383,3.383,0,0,1,.323,1.2,3.583,3.583,0,1,1-7.167,0,3.389,3.389,0,0,1,.233-1.2A1.792,1.792,0,0,0,68.7,75.833H57.715V65.478a1.792,1.792,0,0,0-2.992-1.326,3.584,3.584,0,1,1,0-5.3,1.792,1.792,0,0,0,2.992-1.326V41.792A1.792,1.792,0,0,0,55.923,40,35.833,35.833,0,0,0,39.8,107.8v13.151a5.332,5.332,0,0,0-2.186,8.636,5.352,5.352,0,0,0,3.978,8.958H70.257a5.352,5.352,0,0,0,3.978-8.958,5.332,5.332,0,0,0-2.186-8.636V107.8A35.69,35.69,0,0,0,91.757,77.715,1.792,1.792,0,0,0,91.273,76.389Zm-21.016,58.57H41.59a1.792,1.792,0,1,1,0-3.583H70.256a1.792,1.792,0,1,1,0,3.583Zm0-7.167H41.59a1.792,1.792,0,1,1,0-3.583H70.256a1.792,1.792,0,0,1,0,3.583ZM50.548,93.75H48.756a1.792,1.792,0,1,1,1.792-1.792Zm3.583,26.875V97.333h3.583v23.292ZM69.5,105.055a1.791,1.791,0,0,0-1.039,1.63v13.939H61.3V97.333H63.09a5.375,5.375,0,1,0-5.375-5.375V93.75H54.132V91.958a5.375,5.375,0,1,0-5.375,5.375h1.792v23.292H43.382V106.686a1.791,1.791,0,0,0-1.039-1.63A32.25,32.25,0,0,1,54.131,43.583V54.512a6.653,6.653,0,0,0-1.792-.179,7.167,7.167,0,1,0,0,14.333,6.648,6.648,0,0,0,1.792-.233v9.191a1.792,1.792,0,0,0,1.792,1.792h10.75a7.167,7.167,0,0,0,14.333,0h6.952A32.142,32.142,0,0,1,69.5,105.055ZM61.3,93.75V91.958A1.792,1.792,0,1,1,63.09,93.75Z" transform="translate(-20.163 -40)" fill="#fff"/>
        </g>
      </g>
      <g id="Group_32" data-name="Group 32" transform="translate(45.048 9)">
        <g id="Group_31" data-name="Group 31">
          <path id="Path_29" data-name="Path 29" d="M262.587,0A1.792,1.792,0,0,0,260.8,1.792V14.566A6.649,6.649,0,0,0,259,14.333a7.167,7.167,0,0,0,0,14.333,6.649,6.649,0,0,0,1.792-.233v9.191a1.792,1.792,0,0,0,1.792,1.792h10.75a7.167,7.167,0,0,0,14.333,0h8.958a1.971,1.971,0,0,0,1.792-1.792V35.833A35.833,35.833,0,0,0,262.587,0ZM285.61,35.833a1.792,1.792,0,0,0-1.792,2.383,3.383,3.383,0,0,1,.269,1.2,3.583,3.583,0,1,1-7.167,0,3.388,3.388,0,0,1,.233-1.2,1.792,1.792,0,0,0-1.792-2.383H264.379V25.477a1.792,1.792,0,0,0-2.992-1.326,3.583,3.583,0,1,1,0-5.375,1.792,1.792,0,0,0,2.992-1.254V3.583a32.25,32.25,0,0,1,30.458,32.25Z" transform="translate(-251.837)" fill="#fff"/>
        </g>
      </g>
    </g>
  </g>
</svg>
